# xmcd
#
# Track frame offsets: 
#        150
#        15495
#        30323
#        43218
#        57953
#        72283
#        87078
#        102418
#        114883
#        128770
#        143693
#        158340
#        173590
#        187808
#        202210
#
# Disc length: 2867 seconds
#
# Revision: 5
# Processed by: cddbd v1.5.2PL0 Copyright (c) Steve Scherf et al.
# Submitted via: ExactAudioCopy v1.1
#
DISCID=b80b310f
DTITLE=Billie Holiday - From the Original Decca Masters
DYEAR=1986
DGENRE=Blues
TTITLE0=Ain't Nobody's Business If I Do
TTITLE1=Baby Get Lost
TTITLE2=Them There Eyes
TTITLE3=Keeps on Rainin'
TTITLE4=God Bless The Child
TTITLE5=Do Your Duty
TTITLE6=You're My Thrill
TTITLE7=Gimmie a Pigfoot (And a Bottle of Beer)
TTITLE8=Crazy He Calls Me
TTITLE9=Now or Never
TTITLE10=Please Tell Me Now
TTITLE11=Lover Man (Where Can He Be)
TTITLE12=Good Morning Heartache
TTITLE13=Solitude
TTITLE14=This is Heaven to Me
EXTD=YEAR: 1986
EXTT0=
EXTT1=
EXTT2=
EXTT3=
EXTT4=
EXTT5=
EXTT6=
EXTT7=
EXTT8=
EXTT9=
EXTT10=
EXTT11=
EXTT12=
EXTT13=
EXTT14=
PLAYORDER=
